<svg xmlns="http://www.w3.org/2000/svg" id="Capa_2" data-name="Capa 2" viewBox="0 0 195.34 195.34"><path id="Capa_1-2" d="M97.67 0C43.73 0 0 43.73 0 97.67s43.73 97.67 97.67 97.67 97.67-43.73 97.67-97.67S151.61 0 97.67 0Zm63.73 161.4c-29.25 29.24-74.65 34.83-110.13 13.58a84.847 84.847 0 0 1 53.35-7.11l42.27-112.32-.9-.88-56.58 56.48c4.2 7.09 1.86 16.24-5.23 20.44-7.09 4.2-16.24 1.86-20.44-5.23-4.2-7.09-1.86-16.24 5.23-20.44a14.93 14.93 0 0 1 15.22 0l56.53-56.53-.88-.9L27.67 90.57a84.86 84.86 0 0 1-7.28 53.5C-5.17 101.34 8.74 45.98 51.47 20.42 86.89-.77 132.17 4.8 161.4 33.94c35.2 35.16 35.23 92.19.07 127.39l-.07.07Z" data-name="Capa 1" style="fill:#fff"/></svg>